<svg id="Layer_1" data-name="Layer 1" xmlns="http://www.w3.org/2000/svg" viewBox="0 0 24 24"><defs><style>.cls-1{fill:#666;}</style></defs><title>icon-all-risks-insurance</title><path class="cls-1" d="M12,13a1,1,0,0,0-1,1v1a1,1,0,0,0,2,0V14A1,1,0,0,0,12,13Z"/><path class="cls-1" d="M12,0A12,12,0,1,0,24,12,12,12,0,0,0,12,0Zm6,17a2,2,0,0,1-2,2H8a2,2,0,0,1-2-2V12a2,2,0,0,1,2-2V8a4,4,0,0,1,4-4h.27A3.73,3.73,0,0,1,16,7.73a1,1,0,0,1-2,0A1.72,1.72,0,0,0,12.27,6H12a2,2,0,0,0-2,2v2h6a2,2,0,0,1,2,2Z"/></svg>