<svg id="Layer_1" data-name="Layer 1" xmlns="http://www.w3.org/2000/svg" viewBox="0 0 24 24"><defs><style>.cls-1{fill:#666;}</style></defs><title>icon-back</title><path class="cls-1" d="M12,24A12,12,0,1,1,24,12,12,12,0,0,1,12,24ZM12,2A10,10,0,1,0,22,12,10,10,0,0,0,12,2Z"/><path class="cls-1" d="M10.64,17a1,1,0,0,1-.74-.33l-3.63-4a1,1,0,0,1-.17-.25l0-.06h0a.94.94,0,0,1-.07-.3H6v-.12H6a.94.94,0,0,1,.07-.3h0l0-.06a1,1,0,0,1,.17-.25l3.63-4a1,1,0,1,1,1.48,1.34L9.26,11H17a1,1,0,0,1,0,2H9.26l2.12,2.33a1,1,0,0,1-.07,1.41A1,1,0,0,1,10.64,17Z"/></svg>