<svg id="Layer_1" data-name="Layer 1" xmlns="http://www.w3.org/2000/svg" viewBox="0 0 16 16"><defs><style>.cls-1,.cls-2{fill:#666;}.cls-2{fill-rule:evenodd;}</style></defs><title>icon-calendar</title><path class="cls-1" d="M10,12V10H8v2Z" transform="translate(-4 -4)"/><path class="cls-1" d="M13,10v2H11V10Z" transform="translate(-4 -4)"/><path class="cls-1" d="M13,16V14H11v2Z" transform="translate(-4 -4)"/><path class="cls-1" d="M10,14v2H8V14Z" transform="translate(-4 -4)"/><path class="cls-1" d="M16,10v2H14V10Z" transform="translate(-4 -4)"/><path class="cls-1" d="M16,14v2H14V14Z" transform="translate(-4 -4)"/><path class="cls-2" d="M10,4H8V5H6A2,2,0,0,0,4,7V18a2,2,0,0,0,2,2H18a2,2,0,0,0,2-2V7a2,2,0,0,0-2-2H16V4H14V5H10Zm4,4V7H10V8H8V7H6V18H18V7H16V8Z" transform="translate(-4 -4)"/></svg>