<svg id="Layer_1" data-name="Layer 1" xmlns="http://www.w3.org/2000/svg" viewBox="0 0 24 24"><defs><style>.cls-1{fill:#666;}</style></defs><title>icon-cash-payment</title><path class="cls-1" d="M12.15,8.41a1,1,0,0,1,.89.41A1.91,1.91,0,0,1,13.35,10H16a3.3,3.3,0,0,0-.82-2.31,3.51,3.51,0,0,0-2.25-1.11V5H11.69V6.55a4,4,0,0,0-2.38.94,2.63,2.63,0,0,0-.9,2,2.83,2.83,0,0,0,.26,1.26,2.54,2.54,0,0,0,.72.92,4.68,4.68,0,0,0,1.11.7c.44.2.91.4,1.42.6a2.91,2.91,0,0,1,1.07.62,1.28,1.28,0,0,1,.31.92,1.09,1.09,0,0,1-.31.82,1.12,1.12,0,0,1-.83.29A1.46,1.46,0,0,1,11,15.24,1.87,1.87,0,0,1,10.64,14H8a3.37,3.37,0,0,0,.91,2.46,4.08,4.08,0,0,0,2.62,1.09V19h1.25V17.52a3.74,3.74,0,0,0,2.3-.93,2.67,2.67,0,0,0,.86-2.05,2.77,2.77,0,0,0-.27-1.27,3.1,3.1,0,0,0-.73-.93,5.34,5.34,0,0,0-1.12-.7c-.43-.22-.89-.42-1.37-.61a3.25,3.25,0,0,1-1.06-.61,1.15,1.15,0,0,1-.33-.87,1.16,1.16,0,0,1,.28-.83A1,1,0,0,1,12.15,8.41Z"/><path class="cls-1" d="M12,0A12,12,0,1,0,24,12,12,12,0,0,0,12,0Zm6,19a1,1,0,0,1-1,1H7a1,1,0,0,1-1-1V5A1,1,0,0,1,7,4H17a1,1,0,0,1,1,1Z"/></svg>