<svg id="Layer_1" data-name="Layer 1" xmlns="http://www.w3.org/2000/svg" viewBox="0 0 20 20"><defs><style>.cls-1{fill:#666;fill-rule:evenodd;}</style></defs><title>icon-doubt</title><path class="cls-1" d="M22,12A10,10,0,1,1,12,2,10,10,0,0,1,22,12ZM11.14,13.55a.2.2,0,0,0,.15.06h1.56a.24.24,0,0,0,.19-.07.89.89,0,0,0,.16-.22c0-.14.05-.24.07-.31a2,2,0,0,1,.26-.47c.12-.15.28-.33.48-.55a5.54,5.54,0,0,0,.73-1,1.83,1.83,0,0,0,.26-1,1.74,1.74,0,0,0-.28-.94,2,2,0,0,0-.9-.79A3.56,3.56,0,0,0,12.17,8a3.85,3.85,0,0,0-1.7.35,2.58,2.58,0,0,0-1.08.91A2.15,2.15,0,0,0,9,10.43a.35.35,0,0,0,.07.23.28.28,0,0,0,.2.08h1.36a.34.34,0,0,0,.34-.27A1,1,0,0,1,12,9.62a.91.91,0,0,1,.62.22.58.58,0,0,1,.24.55.86.86,0,0,1-.19.47,7.54,7.54,0,0,1-.54.59,7.25,7.25,0,0,0-.75.84,2,2,0,0,0-.35.85v.26A.18.18,0,0,0,11.14,13.55Zm0,2.37a.3.3,0,0,0,.21.08h1.42a.28.28,0,0,0,.2-.08.25.25,0,0,0,.09-.2V14.43a.25.25,0,0,0-.09-.2.28.28,0,0,0-.2-.08H11.32a.3.3,0,0,0-.21.08.27.27,0,0,0-.07.2v1.29A.27.27,0,0,0,11.11,15.92Z" transform="translate(-2 -2)"/></svg>