<svg id="Layer_1" data-name="Layer 1" xmlns="http://www.w3.org/2000/svg" viewBox="0 0 16 16"><defs><style>.cls-1{fill:#666;}</style></defs><title>icon-download</title><path class="cls-1" d="M19,20H5a1,1,0,0,1-1-1V13a1,1,0,0,1,2,0v5H18V13a1,1,0,0,1,2,0v6A1,1,0,0,1,19,20Z" transform="translate(-4 -4)"/><path class="cls-1" d="M12,16h-.07a1.27,1.27,0,0,1-.28-.06l-.08,0a1,1,0,0,1-.25-.17L8,12.74a1,1,0,1,1,1.34-1.48L11,12.74V5a1,1,0,0,1,2,0v7.74l1.63-1.48A1,1,0,0,1,16,12.74l-3.29,3a1,1,0,0,1-.25.17l-.06,0h0a1.09,1.09,0,0,1-.3.07H12Z" transform="translate(-4 -4)"/></svg>