<svg id="Layer_1" data-name="Layer 1" xmlns="http://www.w3.org/2000/svg" viewBox="0 0 18 16"><defs><style>.cls-1{fill:#666;}</style></defs><title>icon-edit</title><path class="cls-1" d="M15.59,6.59l2.82,2.82a.29.29,0,0,1,.09.21.29.29,0,0,1-.09.22l-6.85,6.85L8.69,17A.59.59,0,0,1,8,16.31l.31-2.87,6.85-6.85a.29.29,0,0,1,.22-.09A.29.29,0,0,1,15.59,6.59Zm5.07-.71L19.12,4.34A1.22,1.22,0,0,0,18.25,4a1.14,1.14,0,0,0-.84.34L16.28,5.47a.29.29,0,0,0-.09.22.33.33,0,0,0,.09.22l2.81,2.81a.33.33,0,0,0,.22.09.29.29,0,0,0,.22-.09l1.13-1.13A1.14,1.14,0,0,0,21,6.75,1.22,1.22,0,0,0,20.66,5.88ZM15,14.81V18H5V8h7.19a.35.35,0,0,0,.25-.09l1.25-1.29a.29.29,0,0,0,.09-.37A.34.34,0,0,0,13.44,6H4.5A1.5,1.5,0,0,0,3,7.5v11A1.5,1.5,0,0,0,4.5,20h11A1.5,1.5,0,0,0,17,18.5V13.56a.34.34,0,0,0-.25-.34.29.29,0,0,0-.37.09l-1.26,1.25A.3.3,0,0,0,15,14.81Z" transform="translate(-3 -4)"/></svg>