<?xml version="1.0" encoding="utf-8"?>
<!-- Generator: Adobe Illustrator 24.0.3, SVG Export Plug-In . SVG Version: 6.00 Build 0)  -->
<svg version="1.1" id="Layer_1" xmlns="http://www.w3.org/2000/svg" xmlns:xlink="http://www.w3.org/1999/xlink" x="0px" y="0px"
	 viewBox="0 0 20 16" style="enable-background:new 0 0 20 16;" xml:space="preserve">
<style type="text/css">
	.st0{fill-rule:evenodd;clip-rule:evenodd;fill:#666666;}
</style>
<title>icon-filter</title>
<path class="st0" d="M17,0c0.6,0,1,0.4,1,1v9.2c1.6,0.6,2.4,2.3,1.8,3.8c-0.6,1.6-2.3,2.4-3.8,1.8s-2.4-2.3-1.8-3.8
	c0.3-0.9,1-1.5,1.8-1.8V1C16,0.4,16.4,0,17,0z M17,12c-0.6,0-1,0.4-1,1s0.4,1,1,1s1-0.4,1-1S17.6,12,17,12z"/>
<path class="st0" d="M10,0C8.3,0,7,1.3,7,3c0,1.3,0.8,2.4,2,2.8v9.1c0,0.6,0.4,1,1,1s1-0.4,1-1V5.8c1.6-0.5,2.4-2.3,1.8-3.8
	C12.4,0.8,11.3,0,10,0z M9,3c0-0.6,0.4-1,1-1s1,0.4,1,1s-0.4,1-1,1S9,3.6,9,3z"/>
<path class="st0" d="M4,5.2V1c0-0.6-0.4-1-1-1S2,0.4,2,1v4.2C1.1,5.5,0.5,6.1,0.2,7c-0.5,1.6,0.3,3.3,1.8,3.8V15c0,0.6,0.4,1,1,1
	s1-0.4,1-1v-4.2c0.9-0.3,1.5-1,1.8-1.8C6.4,7.4,5.6,5.7,4,5.2z M3,9C2.5,9,2,8.6,2,8c0-0.6,0.4-1,1-1c0.6,0,1,0.4,1,1
	C4,8.5,3.6,9,3,9z"/>
</svg>
