<svg id="Layer_1" data-name="Layer 1" xmlns="http://www.w3.org/2000/svg" viewBox="0 0 20 20"><defs><style>.cls-1,.cls-2{fill:#666;}.cls-2{fill-rule:evenodd;}</style></defs><title>icon-gear</title><path class="cls-1" d="M12.33,15a3,3,0,1,0-3-3A3,3,0,0,0,12.33,15Z" transform="translate(-2.33 -2)"/><path class="cls-2" d="M22.33,13.66l-2.44.51a8.07,8.07,0,0,1-.67,1.64l1.35,2.09-2.34,2.34-2.09-1.36a7.49,7.49,0,0,1-1.63.68L14,22H10.68l-.52-2.44a7.57,7.57,0,0,1-1.64-.68L6.43,20.24,4.09,17.9l1.36-2.09a7.57,7.57,0,0,1-.68-1.64l-2.44-.51V10.34l2.44-.51a7.57,7.57,0,0,1,.68-1.64L4.09,6.1,6.43,3.76,8.52,5.12a7.57,7.57,0,0,1,1.64-.68L10.68,2H14l.52,2.44a7.29,7.29,0,0,1,1.63.68l2.09-1.36L20.58,6.1,19.22,8.19a8.11,8.11,0,0,1,.68,1.64l2.43.51Zm-4.32,4-.05.05-1.74-1.13-1,.59a5.82,5.82,0,0,1-1.21.5L12.8,18l-.43,2H12.3l-.44-2-1.15-.33c-.22-.06-.43-.14-.64-.22s-.39-.18-.57-.28l-1.05-.59L6.7,17.68l0-.05,1.13-1.74-.59-1.06a5.22,5.22,0,0,1-.49-1.2l-.33-1.16-2-.43V12l2-.43.33-1.16a5.28,5.28,0,0,1,.51-1.2l.59-1.06L6.65,6.37l0,0L8.45,7.45,9.5,6.86a5.82,5.82,0,0,1,1.21-.5L11.87,6l.43-2h.07l.43,2L14,6.36a5.74,5.74,0,0,1,1.2.5l1.06.59L18,6.32l.06,0L16.88,8.11l.59,1.06a5.61,5.61,0,0,1,.5,1.21l.33,1.15,2,.43V12l-2,.43L18,13.63a6.06,6.06,0,0,1-.5,1.21l-.59,1.05Z" transform="translate(-2.33 -2)"/></svg>