<svg id="Layer_1" data-name="Layer 1" xmlns="http://www.w3.org/2000/svg" viewBox="0 0 24 24"><defs><style>.cls-1{fill:#666;}</style></defs><title>icon-info</title><path class="cls-1" d="M12,0A12,12,0,1,0,24,12,12,12,0,0,0,12,0Zm-.6,5h1.2A1.36,1.36,0,0,1,14,6.31V7.69A1.36,1.36,0,0,1,12.6,9H11.4A1.36,1.36,0,0,1,10,7.69V6.31A1.36,1.36,0,0,1,11.4,5ZM16,17.6A1.36,1.36,0,0,1,14.69,19H9.31A1.36,1.36,0,0,1,8,17.6v-.2A1.36,1.36,0,0,1,9.31,16H10V13H9.31A1.36,1.36,0,0,1,8,11.6v-.2A1.36,1.36,0,0,1,9.31,10h3.38A1.37,1.37,0,0,1,14,11.31V16h.69A1.36,1.36,0,0,1,16,17.4Z"/></svg>