<svg id="Layer_1" data-name="Layer 1" xmlns="http://www.w3.org/2000/svg" viewBox="0 0 20 24"><defs><style>.cls-1{fill:#666;}</style></defs><title>icon-log-out</title><path class="cls-1" d="M5,0A3,3,0,0,0,2,3V21a3,3,0,0,0,3,3h7a3,3,0,0,0,3-3V19.33a1,1,0,0,0-2,0V21a1,1,0,0,1-1,1H5a1,1,0,0,1-1-1V3A1,1,0,0,1,5,2h7a1,1,0,0,1,1,1V4.67a1,1,0,1,0,2,0V3a3,3,0,0,0-3-3Z" transform="translate(-2)"/><path class="cls-1" d="M18.25,7.34a1,1,0,0,0-1.5,1.32L18.8,11H10a1,1,0,0,0,0,2h8.8l-2.05,2.34a1,1,0,1,0,1.5,1.32l3.5-4a1,1,0,0,0,0-1.32Z" transform="translate(-2)"/></svg>