<svg id="Layer_1" data-name="Layer 1" xmlns="http://www.w3.org/2000/svg" viewBox="0 0 16 16"><defs><style>.cls-1,.cls-2{fill:#666;}.cls-2{fill-rule:evenodd;}</style></defs><title>icon-magnifying</title><path class="cls-1" d="M11.7,9a2.54,2.54,0,0,0-2.57,2.5,1,1,0,0,1-2.05,0A4.56,4.56,0,0,1,11.7,7a1,1,0,1,1,0,2Z" transform="translate(-4 -4)"/><path class="cls-2" d="M15.88,14.57a6.36,6.36,0,0,0,1.47-4.07A6.59,6.59,0,0,0,10.67,4,6.59,6.59,0,0,0,4,10.5,6.59,6.59,0,0,0,10.67,17a6.8,6.8,0,0,0,3.69-1.08l3.89,3.79a1,1,0,0,0,1.45,0,1,1,0,0,0,0-1.42ZM10.67,15a4.56,4.56,0,0,0,4.62-4.5A4.56,4.56,0,0,0,10.67,6a4.56,4.56,0,0,0-4.62,4.5A4.56,4.56,0,0,0,10.67,15Z" transform="translate(-4 -4)"/></svg>