<!-- Generated by IcoMoon.io -->
<svg version="1.1" xmlns="http://www.w3.org/2000/svg" width="768" height="768" viewBox="0 0 768 768">
<title></title>
<g id="icomoon-ignore">
    <line stroke-width="1" x1="16" y1="0" x2="16" y2="768" stroke="#449FDB" opacity="0.3"></line>
    <line stroke-width="1" x1="32" y1="0" x2="32" y2="768" stroke="#449FDB" opacity="1"></line>
    <line stroke-width="1" x1="48" y1="0" x2="48" y2="768" stroke="#449FDB" opacity="0.3"></line>
    <line stroke-width="1" x1="64" y1="0" x2="64" y2="768" stroke="#449FDB" opacity="1"></line>
    <line stroke-width="1" x1="80" y1="0" x2="80" y2="768" stroke="#449FDB" opacity="0.3"></line>
    <line stroke-width="1" x1="96" y1="0" x2="96" y2="768" stroke="#449FDB" opacity="1"></line>
    <line stroke-width="1" x1="112" y1="0" x2="112" y2="768" stroke="#449FDB" opacity="0.3"></line>
    <line stroke-width="1" x1="128" y1="0" x2="128" y2="768" stroke="#449FDB" opacity="1"></line>
    <line stroke-width="1" x1="144" y1="0" x2="144" y2="768" stroke="#449FDB" opacity="0.3"></line>
    <line stroke-width="1" x1="160" y1="0" x2="160" y2="768" stroke="#449FDB" opacity="1"></line>
    <line stroke-width="1" x1="176" y1="0" x2="176" y2="768" stroke="#449FDB" opacity="0.3"></line>
    <line stroke-width="1" x1="192" y1="0" x2="192" y2="768" stroke="#449FDB" opacity="1"></line>
    <line stroke-width="1" x1="208" y1="0" x2="208" y2="768" stroke="#449FDB" opacity="0.3"></line>
    <line stroke-width="1" x1="224" y1="0" x2="224" y2="768" stroke="#449FDB" opacity="1"></line>
    <line stroke-width="1" x1="240" y1="0" x2="240" y2="768" stroke="#449FDB" opacity="0.3"></line>
    <line stroke-width="1" x1="256" y1="0" x2="256" y2="768" stroke="#449FDB" opacity="1"></line>
    <line stroke-width="1" x1="272" y1="0" x2="272" y2="768" stroke="#449FDB" opacity="0.3"></line>
    <line stroke-width="1" x1="288" y1="0" x2="288" y2="768" stroke="#449FDB" opacity="1"></line>
    <line stroke-width="1" x1="304" y1="0" x2="304" y2="768" stroke="#449FDB" opacity="0.3"></line>
    <line stroke-width="1" x1="320" y1="0" x2="320" y2="768" stroke="#449FDB" opacity="1"></line>
    <line stroke-width="1" x1="336" y1="0" x2="336" y2="768" stroke="#449FDB" opacity="0.3"></line>
    <line stroke-width="1" x1="352" y1="0" x2="352" y2="768" stroke="#449FDB" opacity="1"></line>
    <line stroke-width="1" x1="368" y1="0" x2="368" y2="768" stroke="#449FDB" opacity="0.3"></line>
    <line stroke-width="1" x1="384" y1="0" x2="384" y2="768" stroke="#449FDB" opacity="1"></line>
    <line stroke-width="1" x1="400" y1="0" x2="400" y2="768" stroke="#449FDB" opacity="0.3"></line>
    <line stroke-width="1" x1="416" y1="0" x2="416" y2="768" stroke="#449FDB" opacity="1"></line>
    <line stroke-width="1" x1="432" y1="0" x2="432" y2="768" stroke="#449FDB" opacity="0.3"></line>
    <line stroke-width="1" x1="448" y1="0" x2="448" y2="768" stroke="#449FDB" opacity="1"></line>
    <line stroke-width="1" x1="464" y1="0" x2="464" y2="768" stroke="#449FDB" opacity="0.3"></line>
    <line stroke-width="1" x1="480" y1="0" x2="480" y2="768" stroke="#449FDB" opacity="1"></line>
    <line stroke-width="1" x1="496" y1="0" x2="496" y2="768" stroke="#449FDB" opacity="0.3"></line>
    <line stroke-width="1" x1="512" y1="0" x2="512" y2="768" stroke="#449FDB" opacity="1"></line>
    <line stroke-width="1" x1="528" y1="0" x2="528" y2="768" stroke="#449FDB" opacity="0.3"></line>
    <line stroke-width="1" x1="544" y1="0" x2="544" y2="768" stroke="#449FDB" opacity="1"></line>
    <line stroke-width="1" x1="560" y1="0" x2="560" y2="768" stroke="#449FDB" opacity="0.3"></line>
    <line stroke-width="1" x1="576" y1="0" x2="576" y2="768" stroke="#449FDB" opacity="1"></line>
    <line stroke-width="1" x1="592" y1="0" x2="592" y2="768" stroke="#449FDB" opacity="0.3"></line>
    <line stroke-width="1" x1="608" y1="0" x2="608" y2="768" stroke="#449FDB" opacity="1"></line>
    <line stroke-width="1" x1="624" y1="0" x2="624" y2="768" stroke="#449FDB" opacity="0.3"></line>
    <line stroke-width="1" x1="640" y1="0" x2="640" y2="768" stroke="#449FDB" opacity="1"></line>
    <line stroke-width="1" x1="656" y1="0" x2="656" y2="768" stroke="#449FDB" opacity="0.3"></line>
    <line stroke-width="1" x1="672" y1="0" x2="672" y2="768" stroke="#449FDB" opacity="1"></line>
    <line stroke-width="1" x1="688" y1="0" x2="688" y2="768" stroke="#449FDB" opacity="0.3"></line>
    <line stroke-width="1" x1="704" y1="0" x2="704" y2="768" stroke="#449FDB" opacity="1"></line>
    <line stroke-width="1" x1="720" y1="0" x2="720" y2="768" stroke="#449FDB" opacity="0.3"></line>
    <line stroke-width="1" x1="736" y1="0" x2="736" y2="768" stroke="#449FDB" opacity="1"></line>
    <line stroke-width="1" x1="752" y1="0" x2="752" y2="768" stroke="#449FDB" opacity="0.3"></line>
    <line stroke-width="1" x1="0" y1="16" x2="768" y2="16" stroke="#449FDB" opacity="0.3"></line>
    <line stroke-width="1" x1="0" y1="32" x2="768" y2="32" stroke="#449FDB" opacity="1"></line>
    <line stroke-width="1" x1="0" y1="48" x2="768" y2="48" stroke="#449FDB" opacity="0.3"></line>
    <line stroke-width="1" x1="0" y1="64" x2="768" y2="64" stroke="#449FDB" opacity="1"></line>
    <line stroke-width="1" x1="0" y1="80" x2="768" y2="80" stroke="#449FDB" opacity="0.3"></line>
    <line stroke-width="1" x1="0" y1="96" x2="768" y2="96" stroke="#449FDB" opacity="1"></line>
    <line stroke-width="1" x1="0" y1="112" x2="768" y2="112" stroke="#449FDB" opacity="0.3"></line>
    <line stroke-width="1" x1="0" y1="128" x2="768" y2="128" stroke="#449FDB" opacity="1"></line>
    <line stroke-width="1" x1="0" y1="144" x2="768" y2="144" stroke="#449FDB" opacity="0.3"></line>
    <line stroke-width="1" x1="0" y1="160" x2="768" y2="160" stroke="#449FDB" opacity="1"></line>
    <line stroke-width="1" x1="0" y1="176" x2="768" y2="176" stroke="#449FDB" opacity="0.3"></line>
    <line stroke-width="1" x1="0" y1="192" x2="768" y2="192" stroke="#449FDB" opacity="1"></line>
    <line stroke-width="1" x1="0" y1="208" x2="768" y2="208" stroke="#449FDB" opacity="0.3"></line>
    <line stroke-width="1" x1="0" y1="224" x2="768" y2="224" stroke="#449FDB" opacity="1"></line>
    <line stroke-width="1" x1="0" y1="240" x2="768" y2="240" stroke="#449FDB" opacity="0.3"></line>
    <line stroke-width="1" x1="0" y1="256" x2="768" y2="256" stroke="#449FDB" opacity="1"></line>
    <line stroke-width="1" x1="0" y1="272" x2="768" y2="272" stroke="#449FDB" opacity="0.3"></line>
    <line stroke-width="1" x1="0" y1="288" x2="768" y2="288" stroke="#449FDB" opacity="1"></line>
    <line stroke-width="1" x1="0" y1="304" x2="768" y2="304" stroke="#449FDB" opacity="0.3"></line>
    <line stroke-width="1" x1="0" y1="320" x2="768" y2="320" stroke="#449FDB" opacity="1"></line>
    <line stroke-width="1" x1="0" y1="336" x2="768" y2="336" stroke="#449FDB" opacity="0.3"></line>
    <line stroke-width="1" x1="0" y1="352" x2="768" y2="352" stroke="#449FDB" opacity="1"></line>
    <line stroke-width="1" x1="0" y1="368" x2="768" y2="368" stroke="#449FDB" opacity="0.3"></line>
    <line stroke-width="1" x1="0" y1="384" x2="768" y2="384" stroke="#449FDB" opacity="1"></line>
    <line stroke-width="1" x1="0" y1="400" x2="768" y2="400" stroke="#449FDB" opacity="0.3"></line>
    <line stroke-width="1" x1="0" y1="416" x2="768" y2="416" stroke="#449FDB" opacity="1"></line>
    <line stroke-width="1" x1="0" y1="432" x2="768" y2="432" stroke="#449FDB" opacity="0.3"></line>
    <line stroke-width="1" x1="0" y1="448" x2="768" y2="448" stroke="#449FDB" opacity="1"></line>
    <line stroke-width="1" x1="0" y1="464" x2="768" y2="464" stroke="#449FDB" opacity="0.3"></line>
    <line stroke-width="1" x1="0" y1="480" x2="768" y2="480" stroke="#449FDB" opacity="1"></line>
    <line stroke-width="1" x1="0" y1="496" x2="768" y2="496" stroke="#449FDB" opacity="0.3"></line>
    <line stroke-width="1" x1="0" y1="512" x2="768" y2="512" stroke="#449FDB" opacity="1"></line>
    <line stroke-width="1" x1="0" y1="528" x2="768" y2="528" stroke="#449FDB" opacity="0.3"></line>
    <line stroke-width="1" x1="0" y1="544" x2="768" y2="544" stroke="#449FDB" opacity="1"></line>
    <line stroke-width="1" x1="0" y1="560" x2="768" y2="560" stroke="#449FDB" opacity="0.3"></line>
    <line stroke-width="1" x1="0" y1="576" x2="768" y2="576" stroke="#449FDB" opacity="1"></line>
    <line stroke-width="1" x1="0" y1="592" x2="768" y2="592" stroke="#449FDB" opacity="0.3"></line>
    <line stroke-width="1" x1="0" y1="608" x2="768" y2="608" stroke="#449FDB" opacity="1"></line>
    <line stroke-width="1" x1="0" y1="624" x2="768" y2="624" stroke="#449FDB" opacity="0.3"></line>
    <line stroke-width="1" x1="0" y1="640" x2="768" y2="640" stroke="#449FDB" opacity="1"></line>
    <line stroke-width="1" x1="0" y1="656" x2="768" y2="656" stroke="#449FDB" opacity="0.3"></line>
    <line stroke-width="1" x1="0" y1="672" x2="768" y2="672" stroke="#449FDB" opacity="1"></line>
    <line stroke-width="1" x1="0" y1="688" x2="768" y2="688" stroke="#449FDB" opacity="0.3"></line>
    <line stroke-width="1" x1="0" y1="704" x2="768" y2="704" stroke="#449FDB" opacity="1"></line>
    <line stroke-width="1" x1="0" y1="720" x2="768" y2="720" stroke="#449FDB" opacity="0.3"></line>
    <line stroke-width="1" x1="0" y1="736" x2="768" y2="736" stroke="#449FDB" opacity="1"></line>
    <line stroke-width="1" x1="0" y1="752" x2="768" y2="752" stroke="#449FDB" opacity="0.3"></line>
</g>
<path fill="#666" d="M287.616 341.376c-6.195 5.308-14.307 8.54-23.173 8.54-0.899 0-1.79-0.033-2.672-0.098l0.118 0.007h-42.24v-66.048h42.24c0.773-0.064 1.674-0.1 2.584-0.1 8.989 0 17.15 3.55 23.156 9.326l-0.011-0.010c5.342 6.544 8.579 14.99 8.579 24.192s-3.237 17.647-8.633 24.261l0.055-0.069z"></path>
<path fill="#666" d="M384 768v0c-212.077 0-384-171.923-384-384v0c0-212.077 171.922-384 384-384s384 171.922 384 384c0 212.077-171.923 384-384 384zM481.536 534.912c1.608 1.66 3.857 2.689 6.346 2.689 0.064 0 0.127-0.001 0.191-0.002h30.71c0.102 0.005 0.221 0.007 0.342 0.007 2.441 0 4.639-1.035 6.182-2.689l0.004-0.005c1.599-1.851 2.602-4.257 2.687-6.894l0.001-0.018v-26.88c24.281-2.544 45.907-12.281 63.134-27.012l-0.158 0.132c14.437-13.054 23.469-31.853 23.469-52.761 0-0.892-0.017-1.779-0.049-2.663l0.004 0.127c0.025-0.704 0.039-1.531 0.039-2.362 0-13.267-3.579-25.698-9.823-36.38l0.185 0.342c-7.191-11.001-17.258-19.586-29.141-24.793l-0.427-0.166c-15.773-7.378-34.091-13.127-53.269-16.338l-1.259-0.174c-12.975-2.776-23.78-5.82-34.313-9.448l2.057 0.616c-6.235-2.428-11.587-5.806-16.164-10.017l0.036 0.033c-2.875-3.387-4.625-7.808-4.625-12.639 0-0.282 0.006-0.562 0.018-0.841l-0.001 0.040c-0.017-0.313-0.027-0.681-0.027-1.051 0-7.006 3.474-13.2 8.793-16.954l0.065-0.043c7.115-3.869 15.58-6.144 24.576-6.144s17.462 2.275 24.851 6.281l-0.275-0.137c5.769 3.191 10.052 8.475 11.861 14.803l0.043 0.173c1.275 2.042 2.95 3.717 4.928 4.955l0.064 0.037c1.093 0.311 2.35 0.49 3.648 0.49s2.554-0.179 3.746-0.513l-0.098 0.023h48.384c0.066 0.002 0.143 0.004 0.221 0.004 2.046 0 3.883-0.889 5.149-2.301l0.006-0.007c1.361-1.534 2.219-3.539 2.303-5.743l0.001-0.017c-0.805-11.092-4.419-21.199-10.126-29.796l0.142 0.228c-6.92-10.718-15.779-19.576-26.155-26.289l-0.341-0.207c-11.862-7.409-25.931-12.469-41.018-14.167l-0.454-0.041v-28.8c-0.086-2.655-1.089-5.061-2.7-6.926l0.012 0.014c-1.547-1.66-3.746-2.695-6.186-2.695-0.12 0-0.24 0.002-0.358 0.007l0.017-0.001h-30.72c-0.054-0.002-0.118-0.002-0.181-0.002-2.49 0-4.738 1.031-6.344 2.687l-0.002 0.002c-1.438 1.812-2.307 4.132-2.307 6.655 0 0.090 0.001 0.181 0.003 0.27v-0.013 28.8c-22.721 2.252-42.801 12.086-58.005 26.9l0.021-0.020c-13.006 12.714-21.173 30.332-21.503 49.858l-0.001 0.061c-0.059 1.056-0.094 2.292-0.094 3.536 0 19.983 8.772 37.917 22.676 50.161l0.073 0.064c18.361 14.305 40.789 24.261 65.27 27.936l0.778 0.096c14.557 3.116 26.525 6.425 38.222 10.325l-2.51-0.725c6.808 2.107 12.701 5.393 17.737 9.66l-0.073-0.060c3.555 3.243 5.777 7.894 5.777 13.065 0 0.267-0.006 0.533-0.018 0.796l0.001-0.037c0.002 0.123 0.004 0.268 0.004 0.414 0 7.856-4.288 14.709-10.652 18.348l-0.104 0.055c-8.179 4.423-17.905 7.021-28.237 7.021-1.279 0-2.548-0.040-3.807-0.119l0.173 0.008c-0.782 0.040-1.699 0.062-2.62 0.062-9.589 0-18.607-2.44-26.469-6.735l0.289 0.145c-6.505-3.942-11.639-9.569-14.876-16.283l-0.1-0.23c-1.616-1.969-3.52-3.628-5.662-4.937l-0.098-0.055c-1.093-0.311-2.35-0.49-3.648-0.49s-2.554 0.179-3.745 0.513l0.097-0.023h-46.080c-0.085-0.004-0.184-0.006-0.284-0.006-2.222 0-4.199 1.049-5.464 2.678l-0.012 0.016c-1.397 1.37-2.273 3.268-2.304 5.37v0.006c0.454 12.711 4.254 24.447 10.537 34.466l-0.17-0.29c7.334 11.191 17.015 20.258 28.392 26.668l0.408 0.212c13.549 7.493 29.414 12.671 46.277 14.54l0.571 0.052v26.496c0.102 1.858 0.66 3.566 1.563 5.039l-0.027-0.047zM156.288 496.512c1.608 1.66 3.857 2.69 6.346 2.69 0.064 0 0.127-0.001 0.191-0.002h47.222c0.151 0.010 0.326 0.016 0.503 0.016 2.392 0 4.54-1.042 6.018-2.696l0.007-0.008c1.862-1.73 3.035-4.18 3.072-6.905v-85.255h38.4l41.856 84.48c2.134 6.088 7.831 10.375 14.528 10.375 0.157 0 0.314-0.002 0.47-0.007l-0.023 0.001h48.768c2.108-0.031 4.006-0.907 5.374-2.303l0.002-0.001c1.361-1.534 2.219-3.539 2.303-5.743l0.001-0.017c0.163-0.635 0.257-1.362 0.257-2.112s-0.094-1.478-0.269-2.173l0.013 0.061-50.304-94.464c13.918-6.319 25.281-16.201 33.226-28.498l0.182-0.301c7.507-12.197 11.955-26.975 11.955-42.791 0-1.022-0.019-2.038-0.055-3.051l0.004 0.146c0.099-1.483 0.156-3.215 0.156-4.961 0-23.706-10.427-44.976-26.946-59.474l-0.089-0.077c-18.731-14.564-42.585-23.348-68.49-23.348-2.924 0-5.823 0.112-8.691 0.332l0.381-0.023h-99.84c-0.054-0.002-0.118-0.002-0.181-0.002-2.49 0-4.738 1.031-6.344 2.687l-0.002 0.002c-1.666 1.667-2.696 3.97-2.696 6.514 0 0.14 0.003 0.279 0.009 0.418l-0.001-0.020v249.6c-0.005 0.118-0.008 0.258-0.008 0.398 0 2.543 1.030 4.846 2.697 6.514v0z"></path>
</svg>
