<?xml version="1.0" encoding="utf-8"?>
<!-- Generator: Adobe Illustrator 24.0.3, SVG Export Plug-In . SVG Version: 6.00 Build 0)  -->
<svg version="1.1" id="Layer_1" xmlns="http://www.w3.org/2000/svg" xmlns:xlink="http://www.w3.org/1999/xlink" x="0px" y="0px"
	 viewBox="0 0 20 20" style="enable-background:new 0 0 20 20;" xml:space="preserve">
<style type="text/css">
	.st0{fill:#666666;}
	.st1{fill-rule:evenodd;clip-rule:evenodd;fill:#666666;}
</style>
<title>icon-money</title>
<path class="st0" d="M7.5,8.9C7.3,9,7.1,9.1,6.8,9.1H5.7V7.4h1.1c0.2,0,0.5,0.1,0.7,0.2C7.8,8,7.8,8.5,7.5,8.9z"/>
<path class="st1" d="M10,20c5.5,0,10-4.5,10-10S15.5,0,10,0S0,4.5,0,10S4.5,20,10,20z M12.5,13.9c0,0,0.1,0.1,0.2,0.1h0.8
	c0.1,0,0.1,0,0.2-0.1c0-0.1,0.1-0.1,0.1-0.2v-0.7c0.6-0.1,1.2-0.3,1.6-0.7c0.4-0.4,0.6-0.9,0.6-1.4c0-0.4-0.1-0.7-0.2-1
	c-0.2-0.3-0.5-0.5-0.8-0.6c-0.5-0.2-0.9-0.4-1.4-0.4c-0.3-0.1-0.6-0.1-0.8-0.2c-0.2-0.1-0.3-0.1-0.4-0.3c-0.1-0.1-0.1-0.2-0.1-0.4
	c0-0.2,0.1-0.4,0.2-0.5c0.4-0.2,0.9-0.2,1.3,0C13.8,7.6,14,7.7,14,7.9C14,8,14.1,8,14.1,8c0.1,0,0.1,0,0.2,0h1.3
	c0.1,0,0.1,0,0.1-0.1c0,0,0.1-0.1,0.1-0.1c0-0.3-0.1-0.5-0.3-0.8c-0.2-0.3-0.4-0.5-0.7-0.7C14.5,6.2,14.1,6,13.8,6V5.2
	c0-0.1,0-0.1-0.1-0.2c0,0-0.1-0.1-0.2-0.1h-0.8c-0.1,0-0.1,0-0.2,0.1c0,0.1-0.1,0.1-0.1,0.2V6c-0.6,0.1-1.1,0.3-1.5,0.7
	C10.6,7,10.4,7.5,10.4,8c0,0.5,0.2,1,0.6,1.4c0.5,0.4,1.1,0.6,1.7,0.7c0.3,0.1,0.6,0.2,0.9,0.2c0.2,0.1,0.3,0.1,0.5,0.2
	c0.1,0.1,0.2,0.2,0.1,0.4c0,0.2-0.1,0.4-0.3,0.5c-0.3,0.1-0.5,0.2-0.8,0.2c-0.3,0-0.5,0-0.8-0.2c-0.2-0.1-0.3-0.3-0.4-0.4
	c0-0.1-0.1-0.1-0.1-0.1c-0.1,0-0.1,0-0.2,0h-1.2c-0.1,0-0.1,0-0.1,0.1c0,0-0.1,0.1-0.1,0.1c0,0.3,0.1,0.6,0.3,0.9
	c0.2,0.3,0.4,0.5,0.8,0.7c0.4,0.2,0.8,0.3,1.2,0.4v0.7C12.5,13.8,12.5,13.9,12.5,13.9z M4.1,12.9c0,0,0.1,0.1,0.2,0.1h1.2
	c0.1,0,0.1,0,0.2-0.1c0.1,0,0.1-0.1,0.1-0.2v-2.2h1l1.1,2.2C7.9,12.9,8,13,8.2,13h1.3c0.1,0,0.1,0,0.1-0.1c0,0,0.1-0.1,0.1-0.1
	c0,0,0-0.1,0-0.1l-1.3-2.5C8.7,10.1,9,9.8,9.2,9.5c0.2-0.4,0.3-0.8,0.3-1.2c0-0.6-0.2-1.3-0.7-1.7C8.3,6.2,7.6,5.9,6.8,6H4.2
	C4.2,6,4.1,6,4.1,6.1C4,6.1,4,6.2,4,6.2v6.5C4,12.8,4,12.9,4.1,12.9z"/>
</svg>
