<!-- Generated by IcoMoon.io -->
<svg version="1.1" xmlns="http://www.w3.org/2000/svg" width="768" height="768" viewBox="0 0 768 768">
<title></title>
<g id="icomoon-ignore">
    <line stroke-width="1" x1="16" y1="0" x2="16" y2="768" stroke="#449FDB" opacity="0.3"></line>
    <line stroke-width="1" x1="32" y1="0" x2="32" y2="768" stroke="#449FDB" opacity="1"></line>
    <line stroke-width="1" x1="48" y1="0" x2="48" y2="768" stroke="#449FDB" opacity="0.3"></line>
    <line stroke-width="1" x1="64" y1="0" x2="64" y2="768" stroke="#449FDB" opacity="1"></line>
    <line stroke-width="1" x1="80" y1="0" x2="80" y2="768" stroke="#449FDB" opacity="0.3"></line>
    <line stroke-width="1" x1="96" y1="0" x2="96" y2="768" stroke="#449FDB" opacity="1"></line>
    <line stroke-width="1" x1="112" y1="0" x2="112" y2="768" stroke="#449FDB" opacity="0.3"></line>
    <line stroke-width="1" x1="128" y1="0" x2="128" y2="768" stroke="#449FDB" opacity="1"></line>
    <line stroke-width="1" x1="144" y1="0" x2="144" y2="768" stroke="#449FDB" opacity="0.3"></line>
    <line stroke-width="1" x1="160" y1="0" x2="160" y2="768" stroke="#449FDB" opacity="1"></line>
    <line stroke-width="1" x1="176" y1="0" x2="176" y2="768" stroke="#449FDB" opacity="0.3"></line>
    <line stroke-width="1" x1="192" y1="0" x2="192" y2="768" stroke="#449FDB" opacity="1"></line>
    <line stroke-width="1" x1="208" y1="0" x2="208" y2="768" stroke="#449FDB" opacity="0.3"></line>
    <line stroke-width="1" x1="224" y1="0" x2="224" y2="768" stroke="#449FDB" opacity="1"></line>
    <line stroke-width="1" x1="240" y1="0" x2="240" y2="768" stroke="#449FDB" opacity="0.3"></line>
    <line stroke-width="1" x1="256" y1="0" x2="256" y2="768" stroke="#449FDB" opacity="1"></line>
    <line stroke-width="1" x1="272" y1="0" x2="272" y2="768" stroke="#449FDB" opacity="0.3"></line>
    <line stroke-width="1" x1="288" y1="0" x2="288" y2="768" stroke="#449FDB" opacity="1"></line>
    <line stroke-width="1" x1="304" y1="0" x2="304" y2="768" stroke="#449FDB" opacity="0.3"></line>
    <line stroke-width="1" x1="320" y1="0" x2="320" y2="768" stroke="#449FDB" opacity="1"></line>
    <line stroke-width="1" x1="336" y1="0" x2="336" y2="768" stroke="#449FDB" opacity="0.3"></line>
    <line stroke-width="1" x1="352" y1="0" x2="352" y2="768" stroke="#449FDB" opacity="1"></line>
    <line stroke-width="1" x1="368" y1="0" x2="368" y2="768" stroke="#449FDB" opacity="0.3"></line>
    <line stroke-width="1" x1="384" y1="0" x2="384" y2="768" stroke="#449FDB" opacity="1"></line>
    <line stroke-width="1" x1="400" y1="0" x2="400" y2="768" stroke="#449FDB" opacity="0.3"></line>
    <line stroke-width="1" x1="416" y1="0" x2="416" y2="768" stroke="#449FDB" opacity="1"></line>
    <line stroke-width="1" x1="432" y1="0" x2="432" y2="768" stroke="#449FDB" opacity="0.3"></line>
    <line stroke-width="1" x1="448" y1="0" x2="448" y2="768" stroke="#449FDB" opacity="1"></line>
    <line stroke-width="1" x1="464" y1="0" x2="464" y2="768" stroke="#449FDB" opacity="0.3"></line>
    <line stroke-width="1" x1="480" y1="0" x2="480" y2="768" stroke="#449FDB" opacity="1"></line>
    <line stroke-width="1" x1="496" y1="0" x2="496" y2="768" stroke="#449FDB" opacity="0.3"></line>
    <line stroke-width="1" x1="512" y1="0" x2="512" y2="768" stroke="#449FDB" opacity="1"></line>
    <line stroke-width="1" x1="528" y1="0" x2="528" y2="768" stroke="#449FDB" opacity="0.3"></line>
    <line stroke-width="1" x1="544" y1="0" x2="544" y2="768" stroke="#449FDB" opacity="1"></line>
    <line stroke-width="1" x1="560" y1="0" x2="560" y2="768" stroke="#449FDB" opacity="0.3"></line>
    <line stroke-width="1" x1="576" y1="0" x2="576" y2="768" stroke="#449FDB" opacity="1"></line>
    <line stroke-width="1" x1="592" y1="0" x2="592" y2="768" stroke="#449FDB" opacity="0.3"></line>
    <line stroke-width="1" x1="608" y1="0" x2="608" y2="768" stroke="#449FDB" opacity="1"></line>
    <line stroke-width="1" x1="624" y1="0" x2="624" y2="768" stroke="#449FDB" opacity="0.3"></line>
    <line stroke-width="1" x1="640" y1="0" x2="640" y2="768" stroke="#449FDB" opacity="1"></line>
    <line stroke-width="1" x1="656" y1="0" x2="656" y2="768" stroke="#449FDB" opacity="0.3"></line>
    <line stroke-width="1" x1="672" y1="0" x2="672" y2="768" stroke="#449FDB" opacity="1"></line>
    <line stroke-width="1" x1="688" y1="0" x2="688" y2="768" stroke="#449FDB" opacity="0.3"></line>
    <line stroke-width="1" x1="704" y1="0" x2="704" y2="768" stroke="#449FDB" opacity="1"></line>
    <line stroke-width="1" x1="720" y1="0" x2="720" y2="768" stroke="#449FDB" opacity="0.3"></line>
    <line stroke-width="1" x1="736" y1="0" x2="736" y2="768" stroke="#449FDB" opacity="1"></line>
    <line stroke-width="1" x1="752" y1="0" x2="752" y2="768" stroke="#449FDB" opacity="0.3"></line>
    <line stroke-width="1" x1="0" y1="16" x2="768" y2="16" stroke="#449FDB" opacity="0.3"></line>
    <line stroke-width="1" x1="0" y1="32" x2="768" y2="32" stroke="#449FDB" opacity="1"></line>
    <line stroke-width="1" x1="0" y1="48" x2="768" y2="48" stroke="#449FDB" opacity="0.3"></line>
    <line stroke-width="1" x1="0" y1="64" x2="768" y2="64" stroke="#449FDB" opacity="1"></line>
    <line stroke-width="1" x1="0" y1="80" x2="768" y2="80" stroke="#449FDB" opacity="0.3"></line>
    <line stroke-width="1" x1="0" y1="96" x2="768" y2="96" stroke="#449FDB" opacity="1"></line>
    <line stroke-width="1" x1="0" y1="112" x2="768" y2="112" stroke="#449FDB" opacity="0.3"></line>
    <line stroke-width="1" x1="0" y1="128" x2="768" y2="128" stroke="#449FDB" opacity="1"></line>
    <line stroke-width="1" x1="0" y1="144" x2="768" y2="144" stroke="#449FDB" opacity="0.3"></line>
    <line stroke-width="1" x1="0" y1="160" x2="768" y2="160" stroke="#449FDB" opacity="1"></line>
    <line stroke-width="1" x1="0" y1="176" x2="768" y2="176" stroke="#449FDB" opacity="0.3"></line>
    <line stroke-width="1" x1="0" y1="192" x2="768" y2="192" stroke="#449FDB" opacity="1"></line>
    <line stroke-width="1" x1="0" y1="208" x2="768" y2="208" stroke="#449FDB" opacity="0.3"></line>
    <line stroke-width="1" x1="0" y1="224" x2="768" y2="224" stroke="#449FDB" opacity="1"></line>
    <line stroke-width="1" x1="0" y1="240" x2="768" y2="240" stroke="#449FDB" opacity="0.3"></line>
    <line stroke-width="1" x1="0" y1="256" x2="768" y2="256" stroke="#449FDB" opacity="1"></line>
    <line stroke-width="1" x1="0" y1="272" x2="768" y2="272" stroke="#449FDB" opacity="0.3"></line>
    <line stroke-width="1" x1="0" y1="288" x2="768" y2="288" stroke="#449FDB" opacity="1"></line>
    <line stroke-width="1" x1="0" y1="304" x2="768" y2="304" stroke="#449FDB" opacity="0.3"></line>
    <line stroke-width="1" x1="0" y1="320" x2="768" y2="320" stroke="#449FDB" opacity="1"></line>
    <line stroke-width="1" x1="0" y1="336" x2="768" y2="336" stroke="#449FDB" opacity="0.3"></line>
    <line stroke-width="1" x1="0" y1="352" x2="768" y2="352" stroke="#449FDB" opacity="1"></line>
    <line stroke-width="1" x1="0" y1="368" x2="768" y2="368" stroke="#449FDB" opacity="0.3"></line>
    <line stroke-width="1" x1="0" y1="384" x2="768" y2="384" stroke="#449FDB" opacity="1"></line>
    <line stroke-width="1" x1="0" y1="400" x2="768" y2="400" stroke="#449FDB" opacity="0.3"></line>
    <line stroke-width="1" x1="0" y1="416" x2="768" y2="416" stroke="#449FDB" opacity="1"></line>
    <line stroke-width="1" x1="0" y1="432" x2="768" y2="432" stroke="#449FDB" opacity="0.3"></line>
    <line stroke-width="1" x1="0" y1="448" x2="768" y2="448" stroke="#449FDB" opacity="1"></line>
    <line stroke-width="1" x1="0" y1="464" x2="768" y2="464" stroke="#449FDB" opacity="0.3"></line>
    <line stroke-width="1" x1="0" y1="480" x2="768" y2="480" stroke="#449FDB" opacity="1"></line>
    <line stroke-width="1" x1="0" y1="496" x2="768" y2="496" stroke="#449FDB" opacity="0.3"></line>
    <line stroke-width="1" x1="0" y1="512" x2="768" y2="512" stroke="#449FDB" opacity="1"></line>
    <line stroke-width="1" x1="0" y1="528" x2="768" y2="528" stroke="#449FDB" opacity="0.3"></line>
    <line stroke-width="1" x1="0" y1="544" x2="768" y2="544" stroke="#449FDB" opacity="1"></line>
    <line stroke-width="1" x1="0" y1="560" x2="768" y2="560" stroke="#449FDB" opacity="0.3"></line>
    <line stroke-width="1" x1="0" y1="576" x2="768" y2="576" stroke="#449FDB" opacity="1"></line>
    <line stroke-width="1" x1="0" y1="592" x2="768" y2="592" stroke="#449FDB" opacity="0.3"></line>
    <line stroke-width="1" x1="0" y1="608" x2="768" y2="608" stroke="#449FDB" opacity="1"></line>
    <line stroke-width="1" x1="0" y1="624" x2="768" y2="624" stroke="#449FDB" opacity="0.3"></line>
    <line stroke-width="1" x1="0" y1="640" x2="768" y2="640" stroke="#449FDB" opacity="1"></line>
    <line stroke-width="1" x1="0" y1="656" x2="768" y2="656" stroke="#449FDB" opacity="0.3"></line>
    <line stroke-width="1" x1="0" y1="672" x2="768" y2="672" stroke="#449FDB" opacity="1"></line>
    <line stroke-width="1" x1="0" y1="688" x2="768" y2="688" stroke="#449FDB" opacity="0.3"></line>
    <line stroke-width="1" x1="0" y1="704" x2="768" y2="704" stroke="#449FDB" opacity="1"></line>
    <line stroke-width="1" x1="0" y1="720" x2="768" y2="720" stroke="#449FDB" opacity="0.3"></line>
    <line stroke-width="1" x1="0" y1="736" x2="768" y2="736" stroke="#449FDB" opacity="1"></line>
    <line stroke-width="1" x1="0" y1="752" x2="768" y2="752" stroke="#449FDB" opacity="0.3"></line>
</g>
<path fill="#666" d="M303.681 348.48c-5.163 4.423-11.922 7.117-19.313 7.117-0.749 0-1.493-0.027-2.228-0.082l0.098 0.007h-35.199v-55.041h35.199c0.644-0.052 1.395-0.082 2.152-0.082 7.493 0 14.291 2.96 19.298 7.772l-0.007-0.007c4.451 5.452 7.147 12.491 7.147 20.16s-2.697 14.707-7.193 20.217l0.046-0.057z"></path>
<path fill="#666" d="M384 704.001v0c-176.731 0-320.001-143.269-320.001-320.001v0c0-176.731 143.27-320.001 320.001-320.001s320.001 143.27 320.001 320.001c0 176.732-143.269 320.001-320.001 320.001zM465.279 509.76c1.341 1.384 3.214 2.242 5.287 2.242 0.053 0 0.107-0.001 0.158-0.002h25.592c0.084 0.005 0.185 0.007 0.285 0.007 2.033 0 3.865-0.862 5.153-2.243l0.004-0.005c1.332-1.542 2.167-3.548 2.24-5.745l0.001-0.015v-22.401c20.234-2.121 38.257-10.235 52.613-22.509l-0.131 0.111c12.031-10.88 19.557-26.543 19.557-43.968 0-0.742-0.014-1.482-0.040-2.219l0.004 0.107c0.022-0.587 0.033-1.276 0.033-1.969 0-11.056-2.982-21.414-8.185-30.317l0.154 0.285c-5.993-9.168-14.38-16.322-24.284-20.663l-0.355-0.139c-13.144-6.148-28.409-10.94-44.392-13.614l-1.048-0.144c-10.812-2.315-19.817-4.851-28.595-7.873l1.715 0.514c-5.197-2.023-9.655-4.837-13.47-8.347l0.030 0.027c-2.395-2.823-3.853-6.506-3.853-10.533 0-0.234 0.006-0.469 0.015-0.7l-0.001 0.034c-0.014-0.263-0.022-0.567-0.022-0.877 0-5.839 2.895-11.001 7.327-14.128l0.053-0.038c5.929-3.224 12.982-5.121 20.481-5.121s14.552 1.897 20.708 5.234l-0.23-0.113c4.808 2.66 8.377 7.062 9.884 12.337l0.037 0.143c1.062 1.702 2.459 3.097 4.106 4.13l0.053 0.031c0.911 0.26 1.957 0.409 3.039 0.409s2.128-0.149 3.122-0.428l-0.083 0.020h40.32c0.054 0.002 0.119 0.004 0.185 0.004 1.704 0 3.235-0.742 4.291-1.917l0.006-0.007c1.133-1.279 1.85-2.948 1.919-4.786l0.001-0.014c-0.67-9.244-3.683-17.665-8.438-24.831l0.118 0.189c-5.768-8.933-13.148-16.313-21.796-21.908l-0.284-0.173c-9.885-6.173-21.607-10.39-34.18-11.806l-0.38-0.035v-24c-0.071-2.212-0.908-4.218-2.25-5.771l0.009 0.011c-1.289-1.384-3.122-2.245-5.154-2.245-0.099 0-0.201 0.002-0.298 0.007l0.014-0.001h-25.599c-0.045-0.001-0.097-0.001-0.151-0.001-2.076 0-3.95 0.859-5.287 2.24l-0.002 0.002c-1.198 1.509-1.923 3.442-1.923 5.545 0 0.075 0.001 0.151 0.003 0.225v-0.011 24c-18.935 1.877-35.667 10.072-48.338 22.418l0.018-0.017c-10.838 10.596-17.644 25.277-17.918 41.549l-0.001 0.052c-0.050 0.879-0.079 1.911-0.079 2.948 0 16.653 7.311 31.597 18.896 41.8l0.061 0.053c15.302 11.921 33.991 20.217 54.392 23.28l0.649 0.081c12.13 2.597 22.103 5.354 31.853 8.603l-2.092-0.605c5.675 1.756 10.583 4.493 14.782 8.049l-0.061-0.051c2.963 2.703 4.813 6.577 4.813 10.887 0 0.222-0.006 0.442-0.015 0.664l0.001-0.032c0.002 0.102 0.004 0.224 0.004 0.345 0 6.548-3.575 12.258-8.876 15.291l-0.086 0.046c-6.818 3.685-14.92 5.851-23.531 5.851-1.066 0-2.123-0.034-3.173-0.097l0.143 0.007c-0.653 0.034-1.417 0.053-2.183 0.053-7.99 0-15.505-2.033-22.057-5.613l0.241 0.121c-5.422-3.285-9.697-7.973-12.397-13.567l-0.083-0.191c-1.346-1.643-2.932-3.022-4.717-4.114l-0.083-0.046c-0.911-0.26-1.957-0.409-3.039-0.409s-2.128 0.149-3.122 0.428l0.083-0.020h-38.4c-0.070-0.004-0.154-0.006-0.236-0.006-1.852 0-3.5 0.875-4.553 2.231l-0.009 0.013c-1.163 1.142-1.895 2.723-1.92 4.476v0.006c0.379 10.593 3.546 20.373 8.783 28.721l-0.143-0.242c6.113 9.325 14.179 16.883 23.661 22.223l0.339 0.175c11.29 6.245 24.512 10.559 38.564 12.116l0.475 0.043v22.080c0.084 1.549 0.549 2.971 1.302 4.199l-0.022-0.038zM194.241 477.759c1.341 1.384 3.215 2.243 5.288 2.243 0.053 0 0.106-0.001 0.158-0.002h39.353c0.127 0.007 0.272 0.013 0.419 0.013 1.993 0 3.784-0.868 5.016-2.245l0.007-0.007c1.553-1.442 2.528-3.484 2.559-5.753v-71.047h32.001l34.881 70.401c1.778 5.074 6.526 8.647 12.107 8.647 0.13 0 0.263-0.002 0.392-0.007l-0.020 0.001h40.641c1.757-0.025 3.337-0.757 4.478-1.918l0.002-0.001c1.132-1.279 1.85-2.948 1.919-4.786l0.001-0.014c0.136-0.53 0.214-1.134 0.214-1.761s-0.079-1.232-0.224-1.81l0.010 0.052-41.919-78.72c11.599-5.266 21.067-13.501 27.688-23.75l0.152-0.25c6.256-10.163 9.963-22.478 9.963-35.66 0-0.851-0.016-1.7-0.046-2.543l0.004 0.122c0.083-1.237 0.129-2.678 0.129-4.133 0-19.755-8.69-37.479-22.455-49.562l-0.074-0.065c-15.608-12.137-35.487-19.457-57.075-19.457-2.438 0-4.853 0.094-7.242 0.277l0.318-0.020h-83.199c-0.045-0.001-0.097-0.001-0.151-0.001-2.076 0-3.95 0.859-5.287 2.24l-0.002 0.002c-1.388 1.388-2.246 3.308-2.246 5.428 0 0.116 0.003 0.233 0.007 0.349l-0.001-0.016v207.999c-0.005 0.097-0.007 0.216-0.007 0.332 0 2.12 0.86 4.039 2.247 5.428v0z"></path>
</svg>
