<svg id="Layer_1" data-name="Layer 1" xmlns="http://www.w3.org/2000/svg" viewBox="0 0 20 24"><defs><style>.cls-1,.cls-2{fill:#666;}.cls-2{fill-rule:evenodd;}</style></defs><title>icon-password</title><path class="cls-1" d="M11,16.73A2,2,0,0,1,10,15a2,2,0,0,1,4,0,2,2,0,0,1-1,1.73V18a1,1,0,0,1-2,0Z" transform="translate(-2)"/><path class="cls-2" d="M5,5V9.75A8,8,0,0,0,10,24h4A8,8,0,0,0,19,9.75V5a5,5,0,0,0-5-5H10A5,5,0,0,0,5,5ZM17,5V8.58A8.09,8.09,0,0,0,14,8H10a8.09,8.09,0,0,0-3,.58V5a3,3,0,0,1,3-3h4A3,3,0,0,1,17,5Zm-7,5h4a6,6,0,0,1,0,12H10a6,6,0,0,1,0-12Z" transform="translate(-2)"/></svg>