<svg id="Layer_1" data-name="Layer 1" xmlns="http://www.w3.org/2000/svg" viewBox="0 0 18 24"><defs><style>.cls-1,.cls-2{fill:#666;}.cls-2{fill-rule:evenodd;}</style></defs><title>icon-simulation</title><path class="cls-1" d="M12.75,13.17a.92.92,0,0,1,.22.66.76.76,0,0,1-.22.58.92.92,0,0,1-.63.21,1.11,1.11,0,0,1-.85-.31A1.31,1.31,0,0,1,11,13.4H9a2.37,2.37,0,0,0,.68,1.76,3.17,3.17,0,0,0,2,.78V17h.93V15.94a2.85,2.85,0,0,0,1.73-.66A1.86,1.86,0,0,0,15,13.82a1.83,1.83,0,0,0-.2-.91,2,2,0,0,0-.55-.67,4.14,4.14,0,0,0-.84-.5c-.32-.15-.66-.29-1-.43a2.67,2.67,0,0,1-.79-.44.81.81,0,0,1-.24-.62.84.84,0,0,1,.21-.6.82.82,0,0,1,.6-.22.81.81,0,0,1,.67.3,1.28,1.28,0,0,1,.24.84h2a2.3,2.3,0,0,0-.62-1.65,2.69,2.69,0,0,0-1.68-.79V7h-.93V8.11A3.07,3.07,0,0,0,10,8.78a1.83,1.83,0,0,0-.67,1.46A1.84,1.84,0,0,0,10,11.8a3.4,3.4,0,0,0,.84.5c.32.15.68.29,1.06.43A2.45,2.45,0,0,1,12.75,13.17Z" transform="translate(-3)"/><path class="cls-2" d="M5,0A2,2,0,0,0,3,2V22a2,2,0,0,0,2,2H19a2,2,0,0,0,2-2V2a2,2,0,0,0-2-2ZM5,2H15V6h4V22H5Z" transform="translate(-3)"/></svg>