<svg id="Layer_1" data-name="Layer 1" xmlns="http://www.w3.org/2000/svg" viewBox="0 0 24 24"><defs><style>.cls-1{fill:#666;}</style></defs><title>icon-subsidy</title><path class="cls-1" d="M12,0A12,12,0,1,0,24,12,12,12,0,0,0,12,0ZM11,10.12a7.22,7.22,0,0,0,1.83.76,11,11,0,0,1,2.16.83,3.34,3.34,0,0,1,2.06,3,2.8,2.8,0,0,1-1.25,2.41A6,6,0,0,1,12.3,18a7.34,7.34,0,0,1-2.79-.51A4.17,4.17,0,0,1,7.63,16.1,3.46,3.46,0,0,1,7,14.05h3.07a1.73,1.73,0,0,0,.52,1.39,2.64,2.64,0,0,0,1.71.44,2.17,2.17,0,0,0,1.2-.29,1,1,0,0,0,.44-.85,1.12,1.12,0,0,0-.48-1,5.75,5.75,0,0,0-1.66-.71,16.75,16.75,0,0,1-2-.72c-1.64-.74-2.47-1.76-2.47-3.06A2.63,2.63,0,0,1,8,7.57,4,4,0,0,1,9.74,6.42,7.12,7.12,0,0,1,12.26,6a6.33,6.33,0,0,1,2.45.45A3.89,3.89,0,0,1,16.4,7.73a3.14,3.14,0,0,1,.6,1.9H14a1.35,1.35,0,0,0-.48-1.11,1.94,1.94,0,0,0-1.28-.39,2.28,2.28,0,0,0-1.3.33,1,1,0,0,0-.47.84A1,1,0,0,0,11,10.12Z"/></svg>