<svg id="Layer_1" data-name="Layer 1" xmlns="http://www.w3.org/2000/svg" viewBox="0 0 16 16"><defs><style>.cls-1,.cls-2{fill:#666;}.cls-2{fill-rule:evenodd;}</style></defs><title>icon-trash</title><path class="cls-1" d="M9,16V10h2v6Z" transform="translate(-4 -4)"/><path class="cls-1" d="M13,10v6h2V10Z" transform="translate(-4 -4)"/><path class="cls-2" d="M8,5A1,1,0,0,1,9,4h6a1,1,0,0,1,1,1V6h3a1,1,0,0,1,0,2V19a1,1,0,0,1-1,1H6a1,1,0,0,1-1-1V8A1,1,0,0,1,5,6H8ZM7,8V18H17V8Z" transform="translate(-4 -4)"/></svg>